<svg width="40.000000" height="40.000000" viewBox="0 0 40 40" fill="none" xmlns="http://www.w3.org/2000/svg" xmlns:xlink="http://www.w3.org/1999/xlink">
	<desc>
			Created with Pixso.
	</desc>
	<defs>
		<filter id="filter_3_2_dd" x="0.000000" y="0.000000" width="40.000000" height="40.000000" filterUnits="userSpaceOnUse" color-interpolation-filters="sRGB">
			<feFlood flood-opacity="0" result="BackgroundImageFix"/>
			<feGaussianBlur in="BackgroundImage" stdDeviation="2.66667"/>
			<feComposite in2="SourceAlpha" operator="in" result="effect_backgroundBlur_1"/>
			<feBlend mode="normal" in="SourceGraphic" in2="effect_backgroundBlur_1" result="shape"/>
		</filter>
		<clipPath id="clip3_1">
			<rect id="logo (2)" width="40.000000" height="40.000000" fill="white" fill-opacity="0"/>
		</clipPath>
	</defs>
	<g clip-path="url(#clip3_1)">
		<g filter="url(#filter_3_2_dd)">
			<path id="bg" d="M20 40C31.04 40 40 31.04 40 20C40 8.95 31.04 0 20 0C8.95 0 0 8.95 0 20C0 31.04 8.95 40 20 40Z" fill="#FF3A62" fill-opacity="1.000000" fill-rule="nonzero"/>
			<path id="bg" d="M40 20C40 8.95 31.04 0 20 0C8.95 0 0 8.95 0 20C0 31.04 8.95 40 20 40C31.04 40 40 31.04 40 20Z" fill="#000000" fill-opacity="0" fill-rule="nonzero"/>
			<path id="bg" d="M20 0C8.95 0 0 8.95 0 20C0 31.04 8.95 40 20 40C31.04 40 40 31.04 40 20C40 8.95 31.04 0 20 0Z" stroke="#979797" stroke-opacity="0" stroke-width="0.000000"/>
		</g>
		<path id="make_bird" d="M21.55 23.37L23.15 23.37L25.34 25.8L30.44 25.8L30.44 28.31L11.77 28.31L11.77 25.8L20.71 25.8L17.84 22.41L8.54 22.41C7.72 22.41 7.06 21.74 7.06 20.9L18.12 20.9C20.83 20.9 23.02 18.62 23.02 16.02C23.02 14.48 21.93 12.99 21.93 12.99C21.17 11.86 21.93 11.29 22.72 11.2C22.75 11.2 22.79 11.19 22.83 11.19L24.43 11.19C25.04 11.19 25.35 11.72 25.48 12.08C25.48 12.08 26.59 12.15 26.79 13.05C25.99 13.05 25.08 13.91 25.87 15.07C26.52 15.84 26.91 16.83 26.91 17.9C26.91 20.38 24.81 22.41 22.23 22.41L19.38 22.41L22.44 25.8L23.61 25.8L21.55 23.37ZM23.72 12.86C23.96 12.86 24.15 12.68 24.15 12.45C24.15 12.23 23.96 12.05 23.72 12.05C23.49 12.05 23.3 12.23 23.3 12.45C23.3 12.68 23.49 12.86 23.72 12.86ZM20.93 18.95C21.71 18.16 22.16 17.1 22.16 16.03C22.16 14.75 21.21 13.41 21.2 13.4C20.99 13.09 20.86 12.79 20.8 12.54L13.66 20.2L17.99 20.2C19.09 20.2 20.13 19.75 20.93 18.95ZM10.83 28.31L8.47 28.31L8.47 25.78L10.83 25.78L10.83 28.31ZM31.45 25.8L31.45 28.33L33.49 27.01L31.45 25.8Z" fill="#FFFFFF" fill-opacity="1.000000" fill-rule="evenodd"/>
	</g>
</svg>
